<mxfile host="Electron" agent="Mozilla/5.0 (Windows NT 10.0; Win64; x64) AppleWebKit/537.36 (KHTML, like Gecko) draw.io/26.0.16 Chrome/132.0.6834.196 Electron/34.2.0 Safari/537.36" version="26.0.16">
  <diagram name="Page-1" id="BHNcq9OhOrzNNd3xvLjW">
    <mxGraphModel dx="1434" dy="884" grid="1" gridSize="10" guides="1" tooltips="1" connect="1" arrows="1" fold="1" page="1" pageScale="1" pageWidth="1169" pageHeight="1654" math="0" shadow="0">
      <root>
        <mxCell id="0" />
        <mxCell id="1" parent="0" />
        <mxCell id="G_xpyUi7uHo1OC-xDAZG-1" value="" style="rounded=0;whiteSpace=wrap;html=1;dashed=1;dashPattern=8 8;" parent="1" vertex="1">
          <mxGeometry x="340" y="230" width="670" height="390" as="geometry" />
        </mxCell>
        <mxCell id="G_xpyUi7uHo1OC-xDAZG-2" value="&lt;font style=&quot;font-size: 18px;&quot;&gt;NodeJS&lt;/font&gt;" style="text;html=1;align=center;verticalAlign=middle;whiteSpace=wrap;rounded=0;" parent="1" vertex="1">
          <mxGeometry x="340" y="230" width="110" height="80" as="geometry" />
        </mxCell>
        <mxCell id="G_xpyUi7uHo1OC-xDAZG-3" value="BACKEND" style="text;html=1;align=center;verticalAlign=middle;whiteSpace=wrap;rounded=0;fontSize=18;" parent="1" vertex="1">
          <mxGeometry x="630" y="170" width="105" height="60" as="geometry" />
        </mxCell>
        <mxCell id="G_xpyUi7uHo1OC-xDAZG-4" value="" style="rounded=0;whiteSpace=wrap;html=1;dashed=1;dashPattern=8 8;" parent="1" vertex="1">
          <mxGeometry x="340" y="890" width="470" height="390" as="geometry" />
        </mxCell>
        <mxCell id="G_xpyUi7uHo1OC-xDAZG-5" value="FrontEnd" style="text;html=1;align=center;verticalAlign=middle;whiteSpace=wrap;rounded=0;fontSize=18;" parent="1" vertex="1">
          <mxGeometry x="530" y="1310" width="90" height="40" as="geometry" />
        </mxCell>
        <mxCell id="G_xpyUi7uHo1OC-xDAZG-6" value="&lt;font style=&quot;font-size: 18px;&quot;&gt;VUE&lt;/font&gt;" style="text;html=1;align=center;verticalAlign=middle;whiteSpace=wrap;rounded=0;" parent="1" vertex="1">
          <mxGeometry x="700" y="1200" width="110" height="80" as="geometry" />
        </mxCell>
        <mxCell id="G_xpyUi7uHo1OC-xDAZG-20" style="edgeStyle=orthogonalEdgeStyle;rounded=0;orthogonalLoop=1;jettySize=auto;html=1;exitX=0;exitY=0.5;exitDx=0;exitDy=0;" parent="1" source="G_xpyUi7uHo1OC-xDAZG-7" target="G_xpyUi7uHo1OC-xDAZG-18" edge="1">
          <mxGeometry relative="1" as="geometry" />
        </mxCell>
        <mxCell id="G_xpyUi7uHo1OC-xDAZG-7" value="APP" style="rounded=1;whiteSpace=wrap;html=1;" parent="1" vertex="1">
          <mxGeometry x="730" y="1030" width="70" height="90" as="geometry" />
        </mxCell>
        <mxCell id="G_xpyUi7uHo1OC-xDAZG-16" style="edgeStyle=orthogonalEdgeStyle;rounded=0;orthogonalLoop=1;jettySize=auto;html=1;" parent="1" source="G_xpyUi7uHo1OC-xDAZG-9" target="G_xpyUi7uHo1OC-xDAZG-12" edge="1">
          <mxGeometry relative="1" as="geometry" />
        </mxCell>
        <mxCell id="G_xpyUi7uHo1OC-xDAZG-9" value="LogIn" style="rounded=1;whiteSpace=wrap;html=1;" parent="1" vertex="1">
          <mxGeometry x="530" y="910" width="70" height="40" as="geometry" />
        </mxCell>
        <mxCell id="G_xpyUi7uHo1OC-xDAZG-17" style="edgeStyle=orthogonalEdgeStyle;rounded=0;orthogonalLoop=1;jettySize=auto;html=1;" parent="1" source="G_xpyUi7uHo1OC-xDAZG-10" target="G_xpyUi7uHo1OC-xDAZG-12" edge="1">
          <mxGeometry relative="1" as="geometry" />
        </mxCell>
        <mxCell id="G_xpyUi7uHo1OC-xDAZG-10" value="SignUp" style="rounded=1;whiteSpace=wrap;html=1;" parent="1" vertex="1">
          <mxGeometry x="530" y="980" width="70" height="40" as="geometry" />
        </mxCell>
        <mxCell id="G_xpyUi7uHo1OC-xDAZG-11" value="axios" style="ellipse;whiteSpace=wrap;html=1;aspect=fixed;" parent="1" vertex="1">
          <mxGeometry x="355" y="1040" width="70" height="70" as="geometry" />
        </mxCell>
        <mxCell id="G_xpyUi7uHo1OC-xDAZG-12" value="Vee-Validate" style="ellipse;whiteSpace=wrap;html=1;aspect=fixed;" parent="1" vertex="1">
          <mxGeometry x="440" y="940" width="50" height="50" as="geometry" />
        </mxCell>
        <mxCell id="G_xpyUi7uHo1OC-xDAZG-21" style="edgeStyle=orthogonalEdgeStyle;rounded=0;orthogonalLoop=1;jettySize=auto;html=1;" parent="1" source="G_xpyUi7uHo1OC-xDAZG-18" target="G_xpyUi7uHo1OC-xDAZG-10" edge="1">
          <mxGeometry relative="1" as="geometry">
            <Array as="points">
              <mxPoint x="675" y="1000" />
            </Array>
          </mxGeometry>
        </mxCell>
        <mxCell id="G_xpyUi7uHo1OC-xDAZG-22" style="edgeStyle=orthogonalEdgeStyle;rounded=0;orthogonalLoop=1;jettySize=auto;html=1;" parent="1" source="G_xpyUi7uHo1OC-xDAZG-18" target="G_xpyUi7uHo1OC-xDAZG-9" edge="1">
          <mxGeometry relative="1" as="geometry">
            <Array as="points">
              <mxPoint x="675" y="930" />
            </Array>
          </mxGeometry>
        </mxCell>
        <mxCell id="G_xpyUi7uHo1OC-xDAZG-26" style="edgeStyle=orthogonalEdgeStyle;rounded=0;orthogonalLoop=1;jettySize=auto;html=1;" parent="1" source="G_xpyUi7uHo1OC-xDAZG-18" target="G_xpyUi7uHo1OC-xDAZG-23" edge="1">
          <mxGeometry relative="1" as="geometry">
            <Array as="points">
              <mxPoint x="675" y="1130" />
            </Array>
          </mxGeometry>
        </mxCell>
        <mxCell id="G_xpyUi7uHo1OC-xDAZG-29" style="edgeStyle=orthogonalEdgeStyle;rounded=0;orthogonalLoop=1;jettySize=auto;html=1;" parent="1" source="G_xpyUi7uHo1OC-xDAZG-18" target="G_xpyUi7uHo1OC-xDAZG-24" edge="1">
          <mxGeometry relative="1" as="geometry">
            <Array as="points">
              <mxPoint x="675" y="1190" />
            </Array>
          </mxGeometry>
        </mxCell>
        <mxCell id="G_xpyUi7uHo1OC-xDAZG-30" style="edgeStyle=orthogonalEdgeStyle;rounded=0;orthogonalLoop=1;jettySize=auto;html=1;" parent="1" source="G_xpyUi7uHo1OC-xDAZG-18" target="G_xpyUi7uHo1OC-xDAZG-25" edge="1">
          <mxGeometry relative="1" as="geometry">
            <Array as="points">
              <mxPoint x="675" y="1250" />
            </Array>
          </mxGeometry>
        </mxCell>
        <mxCell id="G_xpyUi7uHo1OC-xDAZG-43" style="edgeStyle=orthogonalEdgeStyle;rounded=0;orthogonalLoop=1;jettySize=auto;html=1;" parent="1" source="G_xpyUi7uHo1OC-xDAZG-18" target="G_xpyUi7uHo1OC-xDAZG-42" edge="1">
          <mxGeometry relative="1" as="geometry" />
        </mxCell>
        <mxCell id="G_xpyUi7uHo1OC-xDAZG-18" value="Router" style="ellipse;whiteSpace=wrap;html=1;aspect=fixed;" parent="1" vertex="1">
          <mxGeometry x="640" y="1040" width="70" height="70" as="geometry" />
        </mxCell>
        <mxCell id="G_xpyUi7uHo1OC-xDAZG-23" value="Profile" style="rounded=1;whiteSpace=wrap;html=1;" parent="1" vertex="1">
          <mxGeometry x="530" y="1110" width="70" height="40" as="geometry" />
        </mxCell>
        <mxCell id="G_xpyUi7uHo1OC-xDAZG-31" style="edgeStyle=orthogonalEdgeStyle;rounded=0;orthogonalLoop=1;jettySize=auto;html=1;" parent="1" source="G_xpyUi7uHo1OC-xDAZG-24" target="G_xpyUi7uHo1OC-xDAZG-11" edge="1">
          <mxGeometry relative="1" as="geometry" />
        </mxCell>
        <mxCell id="G_xpyUi7uHo1OC-xDAZG-24" value="Chat" style="rounded=1;whiteSpace=wrap;html=1;" parent="1" vertex="1">
          <mxGeometry x="530" y="1170" width="70" height="40" as="geometry" />
        </mxCell>
        <mxCell id="G_xpyUi7uHo1OC-xDAZG-32" style="edgeStyle=orthogonalEdgeStyle;rounded=0;orthogonalLoop=1;jettySize=auto;html=1;" parent="1" source="G_xpyUi7uHo1OC-xDAZG-25" target="G_xpyUi7uHo1OC-xDAZG-11" edge="1">
          <mxGeometry relative="1" as="geometry" />
        </mxCell>
        <mxCell id="G_xpyUi7uHo1OC-xDAZG-25" value="Reel" style="rounded=1;whiteSpace=wrap;html=1;" parent="1" vertex="1">
          <mxGeometry x="530" y="1230" width="70" height="40" as="geometry" />
        </mxCell>
        <mxCell id="G_xpyUi7uHo1OC-xDAZG-33" value="Local Storage" style="rounded=0;whiteSpace=wrap;html=1;" parent="1" vertex="1">
          <mxGeometry x="725" y="920" width="60" height="60" as="geometry" />
        </mxCell>
        <mxCell id="G_xpyUi7uHo1OC-xDAZG-40" style="edgeStyle=orthogonalEdgeStyle;rounded=0;orthogonalLoop=1;jettySize=auto;html=1;" parent="1" source="G_xpyUi7uHo1OC-xDAZG-34" target="G_xpyUi7uHo1OC-xDAZG-35" edge="1">
          <mxGeometry relative="1" as="geometry">
            <Array as="points">
              <mxPoint x="940" y="230" />
              <mxPoint x="940" y="230" />
            </Array>
          </mxGeometry>
        </mxCell>
        <mxCell id="G_xpyUi7uHo1OC-xDAZG-34" value="MongoDB" style="shape=cylinder3;whiteSpace=wrap;html=1;boundedLbl=1;backgroundOutline=1;size=15;" parent="1" vertex="1">
          <mxGeometry x="890" y="100" width="70" height="90" as="geometry" />
        </mxCell>
        <mxCell id="G_xpyUi7uHo1OC-xDAZG-38" style="edgeStyle=orthogonalEdgeStyle;rounded=0;orthogonalLoop=1;jettySize=auto;html=1;" parent="1" source="G_xpyUi7uHo1OC-xDAZG-35" target="G_xpyUi7uHo1OC-xDAZG-34" edge="1">
          <mxGeometry relative="1" as="geometry">
            <Array as="points">
              <mxPoint x="910" y="240" />
              <mxPoint x="910" y="240" />
            </Array>
          </mxGeometry>
        </mxCell>
        <mxCell id="G_xpyUi7uHo1OC-xDAZG-35" value="&lt;font style=&quot;font-size: 16px;&quot;&gt;Mongoose&lt;/font&gt;" style="ellipse;whiteSpace=wrap;html=1;aspect=fixed;" parent="1" vertex="1">
          <mxGeometry x="880" y="250" width="90" height="90" as="geometry" />
        </mxCell>
        <mxCell id="G_xpyUi7uHo1OC-xDAZG-42" value="Home" style="rounded=1;whiteSpace=wrap;html=1;" parent="1" vertex="1">
          <mxGeometry x="530" y="1055" width="70" height="40" as="geometry" />
        </mxCell>
        <mxCell id="G_xpyUi7uHo1OC-xDAZG-44" value="" style="rounded=0;whiteSpace=wrap;html=1;dashed=1;dashPattern=8 8;" parent="1" vertex="1">
          <mxGeometry x="440" y="240" width="370" height="360" as="geometry" />
        </mxCell>
        <mxCell id="G_xpyUi7uHo1OC-xDAZG-58" style="edgeStyle=orthogonalEdgeStyle;rounded=0;orthogonalLoop=1;jettySize=auto;html=1;" parent="1" source="G_xpyUi7uHo1OC-xDAZG-41" target="G_xpyUi7uHo1OC-xDAZG-35" edge="1">
          <mxGeometry relative="1" as="geometry">
            <Array as="points">
              <mxPoint x="850" y="310" />
              <mxPoint x="850" y="310" />
            </Array>
          </mxGeometry>
        </mxCell>
        <mxCell id="G_xpyUi7uHo1OC-xDAZG-41" value="&lt;font style=&quot;font-size: 20px;&quot;&gt;Controller&lt;/font&gt;" style="rounded=1;whiteSpace=wrap;html=1;" parent="1" vertex="1">
          <mxGeometry x="500" y="280" width="250" height="40" as="geometry" />
        </mxCell>
        <mxCell id="G_xpyUi7uHo1OC-xDAZG-48" style="edgeStyle=orthogonalEdgeStyle;rounded=0;orthogonalLoop=1;jettySize=auto;html=1;" parent="1" source="G_xpyUi7uHo1OC-xDAZG-45" target="G_xpyUi7uHo1OC-xDAZG-11" edge="1">
          <mxGeometry relative="1" as="geometry">
            <Array as="points">
              <mxPoint x="640" y="780" />
              <mxPoint x="410" y="780" />
            </Array>
          </mxGeometry>
        </mxCell>
        <mxCell id="G_xpyUi7uHo1OC-xDAZG-55" style="edgeStyle=orthogonalEdgeStyle;rounded=0;orthogonalLoop=1;jettySize=auto;html=1;" parent="1" source="G_xpyUi7uHo1OC-xDAZG-45" target="G_xpyUi7uHo1OC-xDAZG-54" edge="1">
          <mxGeometry relative="1" as="geometry" />
        </mxCell>
        <mxCell id="G_xpyUi7uHo1OC-xDAZG-45" value="&lt;font style=&quot;font-size: 16px;&quot;&gt;CORS middleware&lt;/font&gt;" style="ellipse;whiteSpace=wrap;html=1;aspect=fixed;" parent="1" vertex="1">
          <mxGeometry x="580" y="490" width="90" height="90" as="geometry" />
        </mxCell>
        <mxCell id="G_xpyUi7uHo1OC-xDAZG-47" style="edgeStyle=orthogonalEdgeStyle;rounded=0;orthogonalLoop=1;jettySize=auto;html=1;endArrow=classic;endFill=1;" parent="1" source="G_xpyUi7uHo1OC-xDAZG-11" target="G_xpyUi7uHo1OC-xDAZG-45" edge="1">
          <mxGeometry relative="1" as="geometry">
            <Array as="points">
              <mxPoint x="370" y="730" />
              <mxPoint x="610" y="730" />
            </Array>
          </mxGeometry>
        </mxCell>
        <mxCell id="G_xpyUi7uHo1OC-xDAZG-49" value="HTTP Request" style="text;html=1;align=center;verticalAlign=middle;whiteSpace=wrap;rounded=0;" parent="1" vertex="1">
          <mxGeometry x="310" y="780" width="60" height="30" as="geometry" />
        </mxCell>
        <mxCell id="G_xpyUi7uHo1OC-xDAZG-51" value="HTTP Response" style="text;html=1;align=center;verticalAlign=middle;whiteSpace=wrap;rounded=0;" parent="1" vertex="1">
          <mxGeometry x="425" y="800" width="60" height="30" as="geometry" />
        </mxCell>
        <mxCell id="G_xpyUi7uHo1OC-xDAZG-52" value="match route" style="text;html=1;align=center;verticalAlign=middle;whiteSpace=wrap;rounded=0;" parent="1" vertex="1">
          <mxGeometry x="535" y="560" width="60" height="30" as="geometry" />
        </mxCell>
        <mxCell id="G_xpyUi7uHo1OC-xDAZG-53" value="&lt;font style=&quot;font-size: 18px;&quot;&gt;Express&lt;/font&gt;" style="text;html=1;align=center;verticalAlign=middle;whiteSpace=wrap;rounded=0;" parent="1" vertex="1">
          <mxGeometry x="425" y="220" width="110" height="80" as="geometry" />
        </mxCell>
        <mxCell id="G_xpyUi7uHo1OC-xDAZG-56" style="edgeStyle=orthogonalEdgeStyle;rounded=0;orthogonalLoop=1;jettySize=auto;html=1;" parent="1" source="G_xpyUi7uHo1OC-xDAZG-54" target="G_xpyUi7uHo1OC-xDAZG-41" edge="1">
          <mxGeometry relative="1" as="geometry" />
        </mxCell>
        <mxCell id="G_xpyUi7uHo1OC-xDAZG-54" value="&lt;font style=&quot;font-size: 20px;&quot;&gt;JwT Authentication / Verify&lt;/font&gt;" style="rounded=1;whiteSpace=wrap;html=1;" parent="1" vertex="1">
          <mxGeometry x="500" y="380" width="250" height="40" as="geometry" />
        </mxCell>
        <mxCell id="G_xpyUi7uHo1OC-xDAZG-57" style="edgeStyle=orthogonalEdgeStyle;rounded=0;orthogonalLoop=1;jettySize=auto;html=1;" parent="1" source="G_xpyUi7uHo1OC-xDAZG-35" target="G_xpyUi7uHo1OC-xDAZG-41" edge="1">
          <mxGeometry relative="1" as="geometry">
            <Array as="points">
              <mxPoint x="780" y="295" />
              <mxPoint x="780" y="295" />
            </Array>
          </mxGeometry>
        </mxCell>
        <mxCell id="G_xpyUi7uHo1OC-xDAZG-59" value="Data" style="text;html=1;align=center;verticalAlign=middle;whiteSpace=wrap;rounded=0;" parent="1" vertex="1">
          <mxGeometry x="800" y="270" width="60" height="30" as="geometry" />
        </mxCell>
      </root>
    </mxGraphModel>
  </diagram>
</mxfile>
